<?xml version="1.0" encoding="UTF-8"?>
<svg width="300" height="500" viewBox="0 0 300 500" xmlns="http://www.w3.org/2000/svg">
  <!-- Bottle Base Gradient -->
  <defs>
    <linearGradient id="bottleGradient" x1="0%" y1="0%" x2="100%" y2="100%">
      <stop offset="0%" style="stop-color:#F3B664;stop-opacity:0.9"/>
      <stop offset="50%" style="stop-color:#FFD700;stop-opacity:0.95"/>
      <stop offset="100%" style="stop-color:#F3B664;stop-opacity:0.9"/>
    </linearGradient>
    <filter id="glow" x="-50%" y="-50%" width="200%" height="200%">
      <feGaussianBlur stdDeviation="4" result="coloredBlur"/>
      <feMerge>
        <feMergeNode in="coloredBlur"/>
        <feMergeNode in="SourceGraphic"/>
      </feMerge>
    </filter>
  </defs>

  <!-- Bottle Cap -->
  <path d="M130 80 L170 80 L165 120 L135 120 Z" fill="#DAA520" filter="url(#glow)"/>
  
  <!-- Bottle Neck -->
  <path d="M140 120 L160 120 L155 150 L145 150 Z" fill="url(#bottleGradient)" filter="url(#glow)"/>

  <!-- Main Bottle Body -->
  <path d="M100 150 Q150 140 200 150 L180 400 Q150 420 120 400 Z" fill="url(#bottleGradient)" filter="url(#glow)"/>

  <!-- Decorative Elements -->
  <path d="M120 200 Q150 190 180 200" stroke="#FFD700" stroke-width="2" fill="none" opacity="0.7"/>
  <path d="M115 250 Q150 240 185 250" stroke="#FFD700" stroke-width="2" fill="none" opacity="0.7"/>
  <path d="M110 300 Q150 290 190 300" stroke="#FFD700" stroke-width="2" fill="none" opacity="0.7"/>

  <!-- Shine Effects -->
  <ellipse cx="160" cy="180" rx="15" ry="25" fill="#FFFFFF" opacity="0.1"/>
  <ellipse cx="140" cy="220" rx="10" ry="30" fill="#FFFFFF" opacity="0.1"/>

  <!-- Base Reflection -->
  <path d="M120 400 Q150 420 180 400 L175 410 Q150 430 125 410 Z" fill="#FFFFFF" opacity="0.2"/>
</svg>